<?xml version="1.0" encoding="utf-8"?>
<!-- Generator: Adobe Illustrator 14.0.0, SVG Export Plug-In . SVG Version: 6.00 Build 43363)  -->
<!DOCTYPE svg PUBLIC "-//W3C//DTD SVG 1.1//EN" "http://www.w3.org/Graphics/SVG/1.1/DTD/svg11.dtd">
<svg version="1.1" id="Calque_1" xmlns="http://www.w3.org/2000/svg" xmlns:xlink="http://www.w3.org/1999/xlink" x="0px" y="0px"
	 width="566.929px" height="566.93px" viewBox="0 0 566.929 566.93" enable-background="new 0 0 566.929 566.93"
	 xml:space="preserve">
<g>
	<g>
		<path fill="#00B1D8" d="M291.761,150.554l169.469,2.836l98.395,98.394C543.908,113.142,426.322,5.5,283.464,5.5
			C129.887,5.5,5.5,129.888,5.5,283.465c0,135.371,96.656,248.048,224.752,272.859L104.564,430.639L291.761,150.554z"/>
		<path fill="#006D7F" d="M561.429,283.465c0-10.716-0.627-21.282-1.805-31.682L461.23,153.39l-169.469-2.836L104.564,430.639
			l125.688,125.686c17.224,3.338,35.01,5.105,53.212,5.105C437.039,561.43,561.429,437.038,561.429,283.465z"/>
	</g>
	<path fill="#FFE600" d="M457.193,153.169H109.736c-4.792,0-8.687,3.894-8.687,8.686v260.593c0,4.792,3.894,8.687,8.687,8.687
		h123.989c8.296,0,16.385,3.74,20.987,10.638c6.201,9.289,16.732,15.422,28.752,15.422c12.021,0,22.547-6.133,28.748-15.422
		c4.607-6.897,12.699-10.638,20.986-10.638h123.994c4.793,0,8.686-3.895,8.686-8.687V161.854
		C465.878,157.062,461.986,153.169,457.193,153.169"/>
	<path fill="#E7E8EF" d="M127.109,248.719v156.355h138.982c9.599,0,17.373,7.771,17.373,17.373c0-9.603,7.771-17.373,17.373-17.373
		H439.82V248.719H127.109z"/>
	<path fill="#FFFFFF" d="M309.525,118.423c-14.396,0-26.061,11.664-26.061,26.06c0-14.396-11.664-26.06-26.059-26.06H127.109
		v269.278h138.982c9.599,0,17.373,7.771,17.373,17.373c0-9.603,7.771-17.373,17.373-17.373H439.82V118.423H309.525z"/>
	<path fill="#858585" d="M257.405,235.689h-95.551c-2.398,0-4.343-1.944-4.343-4.344c0-2.398,1.944-4.343,4.343-4.343h95.551
		c2.398,0,4.343,1.944,4.343,4.343C261.749,233.745,259.804,235.689,257.405,235.689L257.405,235.689z"/>
	<path fill="#858585" d="M257.405,209.63h-96.197c-2.398,0-4.343-1.944-4.343-4.343s1.944-4.344,4.343-4.344h96.197
		c2.398,0,4.343,1.945,4.343,4.344S259.804,209.63,257.405,209.63L257.405,209.63z"/>
	<path fill="#858585" d="M257.405,261.749h-95.551c-2.398,0-4.343-1.945-4.343-4.344s1.944-4.343,4.343-4.343h95.551
		c2.398,0,4.343,1.944,4.343,4.343S259.804,261.749,257.405,261.749L257.405,261.749z"/>
	<path fill="#858585" d="M257.405,287.808h-95.551c-2.398,0-4.343-1.944-4.343-4.343s1.944-4.344,4.343-4.344h95.551
		c2.398,0,4.343,1.945,4.343,4.344S259.804,287.808,257.405,287.808L257.405,287.808z"/>
	<path fill="#858585" d="M257.405,313.867h-95.551c-2.398,0-4.343-1.945-4.343-4.343c0-2.4,1.944-4.344,4.343-4.344h95.551
		c2.398,0,4.343,1.943,4.343,4.344C261.749,311.922,259.804,313.867,257.405,313.867L257.405,313.867z"/>
	<path fill="#858585" d="M257.405,339.927h-95.551c-2.398,0-4.343-1.945-4.343-4.344c0-2.399,1.944-4.343,4.343-4.343h95.551
		c2.398,0,4.343,1.943,4.343,4.343C261.749,337.981,259.804,339.927,257.405,339.927L257.405,339.927z"/>
	<path fill="#858585" d="M257.405,365.985h-95.551c-2.398,0-4.343-1.944-4.343-4.343c0-2.4,1.944-4.344,4.343-4.344h95.551
		c2.398,0,4.343,1.943,4.343,4.344C261.749,364.041,259.804,365.985,257.405,365.985L257.405,365.985z"/>
	<path fill="#858585" d="M405.074,235.689h-95.549c-2.4,0-4.344-1.944-4.344-4.344c0-2.398,1.943-4.343,4.344-4.343h95.549
		c2.398,0,4.344,1.944,4.344,4.343C409.417,233.745,407.472,235.689,405.074,235.689L405.074,235.689z"/>
	<path fill="#858585" d="M405.074,261.749h-95.549c-2.4,0-4.344-1.945-4.344-4.344s1.943-4.343,4.344-4.343h95.549
		c2.398,0,4.344,1.944,4.344,4.343S407.472,261.749,405.074,261.749L405.074,261.749z"/>
	<path fill="#858585" d="M405.074,209.63h-95.549c-2.4,0-4.344-1.944-4.344-4.343s1.943-4.344,4.344-4.344h95.549
		c2.398,0,4.344,1.945,4.344,4.344S407.472,209.63,405.074,209.63L405.074,209.63z"/>
	<path fill="#858585" d="M257.405,182.686h-96.197c-2.398,0-4.343-1.945-4.343-4.344s1.944-4.343,4.343-4.343h96.197
		c2.398,0,4.343,1.944,4.343,4.343S259.804,182.686,257.405,182.686L257.405,182.686z"/>
	<path fill="#858585" d="M405.074,182.686h-95.549c-2.4,0-4.344-1.945-4.344-4.344s1.943-4.343,4.344-4.343h95.549
		c2.398,0,4.344,1.944,4.344,4.343S407.472,182.686,405.074,182.686L405.074,182.686z"/>
	<path fill="#858585" d="M257.405,155.74h-96.197c-2.398,0-4.343-1.944-4.343-4.343s1.944-4.344,4.343-4.344h96.197
		c2.398,0,4.343,1.945,4.343,4.344S259.804,155.74,257.405,155.74L257.405,155.74z"/>
	<path fill="#858585" d="M405.074,155.74h-95.549c-2.4,0-4.344-1.944-4.344-4.343s1.943-4.344,4.344-4.344h95.549
		c2.398,0,4.344,1.945,4.344,4.344S407.472,155.74,405.074,155.74L405.074,155.74z"/>
	<path fill="#858585" d="M405.074,287.808h-95.549c-2.4,0-4.344-1.944-4.344-4.343s1.943-4.344,4.344-4.344h95.549
		c2.398,0,4.344,1.945,4.344,4.344S407.472,287.808,405.074,287.808L405.074,287.808z"/>
	<path fill="#858585" d="M405.074,313.867h-95.549c-2.4,0-4.344-1.945-4.344-4.343c0-2.4,1.943-4.344,4.344-4.344h95.549
		c2.398,0,4.344,1.943,4.344,4.344C409.417,311.922,407.472,313.867,405.074,313.867L405.074,313.867z"/>
	<path fill="#858585" d="M405.074,339.927h-95.549c-2.4,0-4.344-1.945-4.344-4.344c0-2.399,1.943-4.343,4.344-4.343h95.549
		c2.398,0,4.344,1.943,4.344,4.343C409.417,337.981,407.472,339.927,405.074,339.927L405.074,339.927z"/>
	<path fill="#858585" d="M405.074,365.985h-95.549c-2.4,0-4.344-1.944-4.344-4.343c0-2.4,1.943-4.344,4.344-4.344h95.549
		c2.398,0,4.344,1.943,4.344,4.344C409.417,364.041,407.472,365.985,405.074,365.985L405.074,365.985z"/>
</g>
</svg>
